<svg width="24" height="24" viewBox="0 0 24 24" fill="none" xmlns="http://www.w3.org/2000/svg">
<g clip-path="url(#clip0_27520_29576)">
<path d="M7.65595 18.666C6.27214 18.666 5.15039 19.7878 5.15039 21.1716C5.15039 22.5554 6.27219 23.6771 7.65595 23.6771C9.03976 23.6771 10.1615 22.5553 10.1615 21.1716C10.1616 19.7878 9.03976 18.666 7.65595 18.666ZM7.65595 22.5636C6.88718 22.5636 6.26398 21.9404 6.26398 21.1716C6.26398 20.4029 6.88718 19.7797 7.65595 19.7797C8.42472 19.7797 9.04791 20.4029 9.04791 21.1716C9.04796 21.9404 8.42472 22.5636 7.65595 22.5636Z" fill="#1A1A1A"/>
<path d="M18.236 18.666C16.8522 18.666 15.7305 19.7878 15.7305 21.1716C15.7305 22.5554 16.8523 23.6771 18.236 23.6771C19.6198 23.6771 20.7416 22.5553 20.7416 21.1716C20.7416 19.7878 19.6198 18.666 18.236 18.666ZM18.236 22.5636C17.4673 22.5636 16.8441 21.9404 16.8441 21.1716C16.8441 20.4029 17.4673 19.7797 18.236 19.7797C19.0048 19.7797 19.628 20.4029 19.628 21.1716C19.628 21.9404 19.0048 22.5636 18.236 22.5636Z" fill="#1A1A1A"/>
<path d="M23.8865 4.05088C23.7705 3.92422 23.6119 3.84493 23.4411 3.82814L5.31741 3.57759L4.8163 2.04639C4.46327 1.0228 3.50474 0.331769 2.42206 0.320312H0.556796C0.249277 0.320312 0 0.569589 0 0.877109C0 1.18463 0.249277 1.43391 0.556796 1.43391H2.42206C3.02745 1.44728 3.56053 1.83601 3.75839 2.40831L7.29404 13.0709L7.01567 13.7112C6.70516 14.5119 6.79841 15.4131 7.26622 16.1333C7.72955 16.8406 8.50904 17.2772 9.35422 17.3026H20.1839C20.4914 17.3026 20.7407 17.0533 20.7407 16.7458C20.7407 16.4383 20.4914 16.189 20.1839 16.189H9.35417C8.87687 16.177 8.43752 15.926 8.18489 15.5208C7.93508 15.1206 7.88376 14.6276 8.0457 14.1845L8.26844 13.6834L19.989 12.4584C21.2764 12.3166 22.3354 11.3802 22.6338 10.1199L23.9701 4.52407C24.0303 4.36293 23.9984 4.1817 23.8865 4.05088ZM21.548 9.86935C21.3673 10.6807 20.6784 11.2792 19.8498 11.3449L8.26844 12.542L5.67933 4.69118L22.7451 4.94174L21.548 9.86935Z" fill="#1A1A1A"/>
</g>
<defs>
<clipPath id="clip0_27520_29576">
<rect width="24" height="24" fill="white"/>
</clipPath>
</defs>
</svg>
