<svg width="207" height="30" viewBox="0 0 207 30" fill="none" xmlns="http://www.w3.org/2000/svg">
<g clip-path="url(#clip0_357_6433)">
<path d="M42.9283 6.92188H49.2709L44.1362 23.7588C43.3911 25.9535 42.2333 27.5392 40.6628 28.5157C39.0923 29.4922 37.0184 29.9304 34.4411 29.8294V24.5436C35.4677 24.5436 36.2534 24.4681 36.7973 24.317C37.3404 24.1659 37.7738 23.8892 38.0959 23.4868L32.0547 6.92188H38.398L41.0858 14.9861L42.9283 6.92188Z" fill="#004F80"/>
<path d="M57.1801 22.4322C54.9249 22.4322 53.0069 21.6672 51.426 20.1365C49.8451 18.6065 49.0547 16.7139 49.0547 14.4579C49.0547 12.2019 49.8404 10.3101 51.4109 8.78013C52.9814 7.25016 54.9042 6.48438 57.1801 6.48438C59.456 6.48438 61.3788 7.24936 62.9493 8.78013C64.5198 10.3101 65.3055 12.2035 65.3055 14.4579C65.3055 16.7123 64.5206 18.6065 62.9493 20.1365C61.3788 21.6672 59.4552 22.4322 57.1801 22.4322ZM55.3527 16.3759C55.8259 16.8698 56.435 17.1163 57.1801 17.1163C57.9252 17.1163 58.5343 16.8698 59.0075 16.3759C59.4806 15.8829 59.7168 15.2436 59.7168 14.4579C59.7168 13.6722 59.4798 13.0337 59.0075 12.5399C58.5343 12.0468 57.9252 11.7995 57.1801 11.7995C56.435 11.7995 55.8259 12.0468 55.3527 12.5399C54.8796 13.0337 54.6434 13.6722 54.6434 14.4579C54.6434 15.2436 54.8796 15.8829 55.3527 16.3759Z" fill="#004F80"/>
<path d="M77.3471 0.875H82.935V22.0179H77.3471V20.6589C76.3809 21.847 75.0315 22.441 73.2995 22.441C71.2654 22.441 69.6042 21.6863 68.316 20.1754C67.0269 18.6653 66.3828 16.7624 66.3828 14.4667C66.3828 12.1709 67.0269 10.2688 68.316 8.75787C69.6042 7.24778 71.2654 6.49313 73.2995 6.49313C75.0315 6.49313 76.3809 7.08715 77.3471 8.27518V0.875ZM72.7111 16.4905C73.2049 17.0344 73.8538 17.3063 74.6593 17.3063C75.4649 17.3063 76.1145 17.0344 76.6076 16.4905C77.1006 15.9473 77.3471 15.2722 77.3471 14.4667C77.3471 13.6611 77.0998 12.9868 76.6076 12.4437C76.1137 11.8997 75.4641 11.6278 74.6593 11.6278C73.8546 11.6278 73.2049 11.8997 72.7111 12.4437C72.2172 12.9868 71.9715 13.6619 71.9715 14.4667C71.9715 15.2714 72.218 15.9473 72.7111 16.4905Z" fill="#004F80"/>
<path d="M95.5971 6.90742H101.185V22.0092H95.5971V20.6502C94.6301 21.8382 93.2815 22.4322 91.5495 22.4322C89.5154 22.4322 87.8542 21.6776 86.566 20.1667C85.2769 18.6566 84.6328 16.7537 84.6328 14.4579C84.6328 12.1621 85.2769 10.26 86.566 8.74912C87.8542 7.23903 89.5154 6.48438 91.5495 6.48438C93.2815 6.48438 94.6301 7.07839 95.5971 8.26643V6.90742ZM90.9603 16.4817C91.4541 17.0256 92.103 17.2976 92.9085 17.2976C93.7141 17.2976 94.363 17.0256 94.8568 16.4817C95.3498 15.9386 95.5971 15.2634 95.5971 14.4579C95.5971 13.6524 95.3498 12.978 94.8568 12.4349C94.363 11.891 93.7141 11.619 92.9085 11.619C92.103 11.619 91.4541 11.891 90.9603 12.4349C90.4664 12.978 90.2207 13.6532 90.2207 14.4579C90.2207 15.2627 90.4672 15.9386 90.9603 16.4817Z" fill="#004F80"/>
<path d="M12.015 29.8462C12.015 29.8462 18.4386 21.3821 12.0953 12.3438C12.0953 12.3438 5.88791 19.5491 12.015 29.8462Z" fill="#004F80"/>
<path d="M10.1 12.3476C10.1 12.3476 7.89014 8.00734 0.202886 7.05469C0.202886 7.05469 -1.91952 16.8055 7.5649 21.0686C7.5649 21.0686 6.92237 15.8672 10.1 12.3468V12.3476Z" fill="#004F80"/>
<path d="M14.1016 12.3577C17.2474 15.9067 16.558 21.1026 16.558 21.1026C26.0805 16.9261 24.048 7.15625 24.048 7.15625C16.352 8.03813 14.1016 12.3577 14.1016 12.3577Z" fill="#004F80"/>
<path d="M12.4266 11.0771C13.5177 10.9051 14.2627 9.88114 14.0907 8.79008C13.9187 7.69902 12.8947 6.95399 11.8037 7.12602C10.7126 7.29805 9.96758 8.32198 10.1396 9.41304C10.3116 10.5041 11.3356 11.2491 12.4266 11.0771Z" fill="#004F80"/>
<path d="M113.27 10.0547C114.491 10.0547 115.516 10.4523 116.346 11.2467C117.175 12.0411 117.59 13.055 117.59 14.2876C117.59 15.5201 117.175 16.534 116.346 17.3284C115.516 18.1228 114.491 18.5204 113.27 18.5204H111.663V22.149H108.57V10.0547H113.27ZM113.27 15.5838C113.616 15.5838 113.906 15.4629 114.142 15.2211C114.378 14.9794 114.496 14.6685 114.496 14.2884C114.496 13.9083 114.378 13.6005 114.142 13.3643C113.906 13.1282 113.615 13.0105 113.27 13.0105H111.663V15.5845H113.27V15.5838Z" fill="#005080"/>
<path d="M126.262 10.0547H129.337V22.149H126.262V17.501H122.858V22.149H119.766V10.0547H122.858V14.5301H126.262V10.0547Z" fill="#005080"/>
<path d="M139.753 22.149L139.173 20.4043H135.057L134.535 22.149H131.188L135.042 10.0547H138.936L142.937 22.149H139.753ZM135.853 17.7427H138.289L137.062 13.6307L135.853 17.7427Z" fill="#005080"/>
<path d="M151.096 22.149L148.988 18.2445H147.882V22.149H144.789V10.0547H149.627C150.86 10.0547 151.893 10.4491 152.728 11.238C153.563 12.0268 153.981 13.0264 153.981 14.2359C153.981 14.9619 153.796 15.6267 153.428 16.2318C153.059 16.8362 152.558 17.3173 151.925 17.6743L154.413 22.149H151.096ZM147.882 12.9055V15.6179H149.593C149.973 15.6299 150.284 15.509 150.526 15.2553C150.767 15.0025 150.888 14.674 150.888 14.2709C150.888 13.8677 150.767 13.5393 150.526 13.2864C150.284 13.0335 149.973 12.9063 149.593 12.9063H147.882V12.9055Z" fill="#005080"/>
<path d="M168.798 10.0547V22.149H165.722V15.6354L162.784 20.491H162.473L159.553 15.6529V22.1498H156.461V10.0547H159.553L162.629 15.2211L165.721 10.0547H168.797H168.798Z" fill="#005080"/>
<path d="M179.206 22.149L178.626 20.4043H174.51L173.988 22.149H170.641L174.495 10.0547H178.389L182.39 22.149H179.206ZM175.306 17.7427H177.743L176.516 13.6307L175.306 17.7427Z" fill="#005080"/>
<path d="M189.651 22.4104C187.83 22.4104 186.324 21.8085 185.132 20.6045C183.94 19.4014 183.344 17.9008 183.344 16.1037C183.344 14.3065 183.94 12.8067 185.132 11.6028C186.324 10.3996 187.83 9.79688 189.651 9.79688C190.745 9.79688 191.759 10.0561 192.691 10.5746C193.624 11.0931 194.356 11.7897 194.885 12.6652L192.207 14.2031C191.977 13.7769 191.634 13.4405 191.179 13.1924C190.724 12.9451 190.214 12.821 189.65 12.821C188.682 12.821 187.902 13.1232 187.309 13.7284C186.715 14.3327 186.419 15.1255 186.419 16.1044C186.419 17.0833 186.715 17.8754 187.309 18.4805C187.902 19.0849 188.682 19.3878 189.65 19.3878C190.214 19.3878 190.724 19.2646 191.179 19.0165C191.634 18.7692 191.977 18.4264 192.207 17.9883L194.885 19.5429C194.356 20.4304 193.627 21.1301 192.699 21.6423C191.772 22.1544 190.756 22.4112 189.65 22.4112L189.651 22.4104Z" fill="#005080"/>
<path d="M206.998 10.0547L202.92 17.5018V22.1498H199.828V17.5368L195.75 10.0555H199.223L201.365 14.5309L203.525 10.0555H206.997L206.998 10.0547Z" fill="#005080"/>
</g>
<defs>
<clipPath id="clip0_357_6433">
<rect width="207" height="28.9773" fill="white" transform="translate(0 0.867188)"/>
</clipPath>
</defs>
</svg>
