<svg width="20" height="20" viewBox="0 0 20 20" fill="none" xmlns="http://www.w3.org/2000/svg">
<path d="M17.3302 3.66667C17.331 3.57871 17.2969 3.494 17.2355 3.431L13.9022 0.0976667C13.8395 0.0358333 13.7545 0.00175 13.6665 0.003V0H3.6665C3.11421 0 2.6665 0.447708 2.6665 1V19C2.6665 19.5523 3.11421 20 3.6665 20H16.3332C16.8855 20 17.3332 19.5523 17.3332 19V3.66667H17.3302ZM13.9998 1.138L16.1952 3.33333H14.3332C14.1491 3.33333 13.9998 3.18408 13.9998 3V1.138ZM16.6665 19C16.6665 19.1841 16.5173 19.3333 16.3332 19.3333H3.6665C3.48242 19.3333 3.33317 19.1841 3.33317 19V1C3.33317 0.815917 3.48242 0.666667 3.6665 0.666667H13.3332V3C13.3332 3.55229 13.7809 4 14.3332 4H16.6665V19Z" fill="#535353"/>
<path d="M6 9C5.44771 9 5 9.44771 5 10C5 10.5523 5.44771 11 6 11C6.55229 11 7 10.5523 7 10C7 9.44771 6.55229 9 6 9ZM6 10.3333C5.81592 10.3333 5.66667 10.1841 5.66667 10C5.66667 9.81592 5.81592 9.66667 6 9.66667C6.18408 9.66667 6.33333 9.81592 6.33333 10C6.33333 10.1841 6.18408 10.3333 6 10.3333Z" fill="#535353"/>
<path d="M15.0002 9.66602H8.3335V10.3327H15.0002V9.66602Z" fill="#535353"/>
<path d="M6 5.66602C5.44771 5.66602 5 6.11372 5 6.66602C5 7.21831 5.44771 7.66602 6 7.66602C6.55229 7.66602 7 7.21831 7 6.66602C7 6.11372 6.55229 5.66602 6 5.66602ZM6 6.99935C5.81592 6.99935 5.66667 6.8501 5.66667 6.66602C5.66667 6.48193 5.81592 6.33268 6 6.33268C6.18408 6.33268 6.33333 6.48193 6.33333 6.66602C6.33333 6.8501 6.18408 6.99935 6 6.99935Z" fill="#535353"/>
<path d="M15.0002 6.33398H8.3335V7.00065H15.0002V6.33398Z" fill="#535353"/>
<path d="M6 12.334C5.44771 12.334 5 12.7817 5 13.334C5 13.8863 5.44771 14.334 6 14.334C6.55229 14.334 7 13.8863 7 13.334C7 12.7817 6.55229 12.334 6 12.334ZM6 13.6673C5.81592 13.6673 5.66667 13.5181 5.66667 13.334C5.66667 13.1499 5.81592 13.0007 6 13.0007C6.18408 13.0007 6.33333 13.1499 6.33333 13.334C6.33333 13.5181 6.18408 13.6673 6 13.6673Z" fill="#535353"/>
<path d="M15.0002 13H8.3335V13.6667H15.0002V13Z" fill="#535353"/>
<path d="M6 15.666C5.44771 15.666 5 16.1137 5 16.666C5 17.2183 5.44771 17.666 6 17.666C6.55229 17.666 7 17.2183 7 16.666C7 16.1137 6.55229 15.666 6 15.666ZM6 16.9993C5.81592 16.9993 5.66667 16.8501 5.66667 16.666C5.66667 16.4819 5.81592 16.3327 6 16.3327C6.18408 16.3327 6.33333 16.4819 6.33333 16.666C6.33333 16.8501 6.18408 16.9993 6 16.9993Z" fill="#535353"/>
<path d="M15.0002 16.334H8.3335V17.0007H15.0002V16.334Z" fill="#535353"/>
</svg>
