<svg width="101" height="101" viewBox="0 0 101 101" fill="none" xmlns="http://www.w3.org/2000/svg">
<path d="M51.1533 74.7648L53.9111 76.0447V66.3926H46.8799V76.0447L49.6201 74.7648C49.8596 74.6508 50.1215 74.5917 50.3867 74.5917C50.6519 74.5917 50.9138 74.6508 51.1533 74.7648Z" fill="white"/>
<path d="M32.0361 66.3926V96.8613H68.7549V66.3926H57.8174V79.0098C57.8134 79.3301 57.7296 79.6444 57.5735 79.9242C57.4174 80.204 57.194 80.4404 56.9236 80.6121C56.6531 80.7838 56.344 80.8853 56.0244 80.9075C55.7048 80.9297 55.3848 80.8718 55.0932 80.7391L50.3955 78.5867L45.6988 80.7385C45.4072 80.8713 45.0871 80.9293 44.7675 80.9072C44.4478 80.8851 44.1387 80.7837 43.8681 80.612C43.5976 80.4404 43.3741 80.204 43.2179 79.9242C43.0617 79.6445 42.9777 79.3302 42.9736 79.0098V66.3926H32.0361Z" fill="white"/>
<path d="M63.9785 35.7281C63.7564 27.525 62.2316 19.7408 59.6262 13.8488C57.0527 8.02852 53.6887 4.67773 50.3955 4.67773C47.1023 4.67773 43.7383 8.03477 41.1648 13.8551C38.5596 19.7471 37.0346 27.525 36.8125 35.7281H63.9785Z" fill="white"/>
<path d="M17.3232 35.7293H25.8268L48.9127 64.449C49.0892 64.6735 49.3145 64.8549 49.5715 64.9795C49.8285 65.1041 50.1104 65.1686 50.396 65.1682C50.6815 65.1678 50.9633 65.1024 51.2199 64.9771C51.4765 64.8517 51.7013 64.6697 51.8772 64.4447L74.9639 35.7293H83.4674C82.6471 21.4715 72.5938 9.38613 59.151 5.69805C60.6049 7.45996 61.9363 9.66992 63.1053 12.3133C65.9193 18.6768 67.5602 26.9402 67.7846 35.7293H70.0814L50.3953 60.2039L30.7092 35.7293H33.0061C33.2305 26.9402 34.8713 18.6748 37.685 12.3113C38.8516 9.67305 40.1801 7.45 41.6303 5.69141C28.1928 9.38164 18.1426 21.4715 17.3232 35.7293Z" fill="white"/>
</svg>
