<svg width="100" height="100" viewBox="0 0 100 100" fill="none" xmlns="http://www.w3.org/2000/svg">
<path fill-rule="evenodd" clip-rule="evenodd" d="M49.999 5.20898C34.4865 5.20898 21.874 17.934 21.874 33.6298C21.874 38.9465 24.2157 45.5423 27.624 52.1215C35.1282 66.609 47.6282 81.2007 47.6282 81.2007C48.2199 81.8923 49.0865 82.2923 49.999 82.2923C50.9115 82.2923 51.7782 81.8923 52.3699 81.2007C52.3699 81.2007 64.8699 66.609 72.374 52.1215C75.7824 45.5423 78.124 38.9465 78.124 33.6298C78.124 17.934 65.5115 5.20898 49.999 5.20898ZM49.999 21.8757C43.674 21.8757 38.5407 27.009 38.5407 33.334C38.5407 39.659 43.674 44.7923 49.999 44.7923C56.324 44.7923 61.4574 39.659 61.4574 33.334C61.4574 27.009 56.324 21.8757 49.999 21.8757Z" fill="white"/>
<path fill-rule="evenodd" clip-rule="evenodd" d="M69.9327 72.4053C73.3202 73.4219 76.1119 74.6803 78.041 76.1553C79.291 77.1053 80.2077 78.0344 80.2077 79.1678C80.2077 79.8344 79.8285 80.4386 79.2952 81.0428C78.4119 82.0386 77.0994 82.9344 75.4744 83.7678C69.7327 86.7053 60.4494 88.5428 49.9994 88.5428C39.5494 88.5428 30.266 86.7053 24.5244 83.7678C22.8994 82.9344 21.5868 82.0386 20.7035 81.0428C20.1702 80.4386 19.791 79.8344 19.791 79.1678C19.791 78.0344 20.7077 77.1053 21.9577 76.1553C23.8868 74.6803 26.6785 73.4219 30.066 72.4053C31.716 71.9094 32.6535 70.1636 32.1577 68.5136C31.6618 66.8594 29.916 65.9219 28.266 66.4178C23.1077 67.9719 19.0993 70.1011 16.691 72.4553C14.5743 74.5178 13.541 76.8261 13.541 79.1678C13.541 82.0928 15.1952 85.0094 18.5577 87.4428C24.4577 91.7094 36.3077 94.7928 49.9994 94.7928C63.691 94.7928 75.541 91.7094 81.441 87.4428C84.8035 85.0094 86.4577 82.0928 86.4577 79.1678C86.4577 76.8261 85.4244 74.5178 83.3077 72.4553C80.8994 70.1011 76.891 67.9719 71.7327 66.4178C70.0827 65.9219 68.3369 66.8594 67.841 68.5136C67.3452 70.1636 68.2827 71.9094 69.9327 72.4053Z" fill="white"/>
</svg>
