<svg width="100" height="100" viewBox="0 0 100 100" fill="none" xmlns="http://www.w3.org/2000/svg">
<path d="M47.9663 33.316L28.628 13.9778C22.8635 8.21313 13.5398 8.21313 7.7752 13.9778C1.98099 19.7719 2.05441 29.0954 7.7752 34.8307L27.1133 54.169C27.5251 54.5807 28.1721 54.5807 28.5692 54.169L47.9663 34.7866C48.3779 34.3749 48.3779 33.7278 47.9663 33.316ZM28.0839 23.2131C27.6868 23.6101 27.025 23.6101 26.6281 23.2131L25.9956 22.5807C25.5985 22.1837 25.5985 21.5367 25.9956 21.1248C26.4074 20.7278 27.0544 20.7278 27.4515 21.1248L28.0839 21.7572C28.481 22.1543 28.481 22.8161 28.0839 23.2131ZM11.9369 18.1396C15.3927 14.6689 21.0105 14.6689 24.4662 18.1396C24.8632 18.5366 24.8632 19.1984 24.4662 19.5955C24.0693 19.9925 23.4074 19.9925 23.0103 19.5955C20.3486 16.9337 16.0397 16.9484 13.3928 19.5955C12.981 19.9925 12.3338 19.9925 11.9369 19.5955C11.5251 19.1984 11.5251 18.5366 11.9369 18.1396Z" fill="white"/>
<path d="M72.8774 54.169L92.2303 34.8307C97.9509 29.0954 98.0096 19.7572 92.2303 13.9778C86.4657 8.21313 77.1273 8.21313 71.3774 13.9778L52.0242 33.316C51.6273 33.7278 51.6273 34.3749 52.0242 34.7866L71.4214 54.169C71.8185 54.5807 72.4804 54.5807 72.8774 54.169ZM72.8333 15.4337C77.7743 10.4925 85.8185 10.4925 90.7744 15.4337C95.8184 20.4778 95.6127 28.5219 90.7744 33.3749L72.1567 51.9925L54.2156 34.0513L72.8333 15.4337Z" fill="white"/>
<path d="M73.3711 23.213L74.0001 22.584C74.4022 22.1819 74.4022 21.5299 74.0001 21.1278C73.598 20.7256 72.946 20.7256 72.5439 21.1278L71.9149 21.7568C71.5128 22.1589 71.5128 22.8109 71.9149 23.213C72.3168 23.6149 72.969 23.6151 73.3711 23.213Z" fill="white"/>
<path d="M76.9902 19.5943C79.6489 16.9326 83.9594 16.9398 86.6108 19.5943C87.0129 19.9964 87.6649 19.9964 88.067 19.5943C88.4692 19.1922 88.4692 18.5402 88.067 18.1381C84.6054 14.6764 78.9947 14.6743 75.534 18.1381C75.1319 18.5402 75.1319 19.1922 75.534 19.5943C75.9345 19.9948 76.5865 19.998 76.9902 19.5943Z" fill="white"/>
<path d="M55.3041 55.3611C55.3041 50.567 51.4071 46.6699 46.6129 46.6699C41.8188 46.6699 37.9219 50.567 37.9219 55.3611C37.9219 60.1552 41.8188 64.0523 46.6129 64.0523C51.4071 64.0523 55.3041 60.1552 55.3041 55.3611Z" fill="white"/>
<path d="M55.6287 90.3452C60.7048 90.3452 64.8199 86.2302 64.8199 81.1541C64.8199 76.0779 60.7048 71.9629 55.6287 71.9629C50.5525 71.9629 46.4375 76.0779 46.4375 81.1541C46.4375 86.2302 50.5525 90.3452 55.6287 90.3452Z" fill="white"/>
<path d="M35.8926 79.9927C39.6574 79.9927 42.7164 76.9338 42.7164 73.1838C42.7164 69.4191 39.6574 66.375 35.8926 66.375C32.1427 66.375 29.084 69.4191 29.084 73.1838C29.084 76.9338 32.1427 79.9927 35.8926 79.9927ZM35.8926 68.4338C38.525 68.4338 40.6573 70.5661 40.6573 73.1838C40.6573 75.8014 38.525 77.9338 35.8926 77.9338C33.2749 77.9338 31.1427 75.8014 31.1427 73.1838C31.1427 70.5661 33.2749 68.4338 35.8926 68.4338Z" fill="white"/>
<path d="M70.8187 62.4039C70.8187 58.8745 67.9364 55.9922 64.3924 55.9922C60.8628 55.9922 57.9805 58.8745 57.9805 62.4039C57.9805 65.948 60.8628 68.8304 64.3924 68.8304C67.9364 68.8304 70.8187 65.948 70.8187 62.4039ZM64.3924 66.7715C61.9951 66.7715 60.0393 64.8157 60.0393 62.4039C60.0393 60.0069 61.9951 58.051 64.3924 58.051C66.804 58.051 68.76 60.0069 68.76 62.4039C68.76 64.8157 66.804 66.7715 64.3924 66.7715Z" fill="white"/>
</svg>
