<svg width="23" height="24" viewBox="0 0 23 24" fill="none" xmlns="http://www.w3.org/2000/svg">
<path d="M21.7304 0.5H1.26848C0.567841 0.500421 -0.000140355 1.06868 2.60165e-08 1.7696V22.2315C0.00042117 22.9322 0.568683 23.5001 1.2696 23.5H12.2861V14.6055H9.29883V11.124H12.2861V8.56193C12.2861 5.59077 14.1 3.97358 16.7504 3.97358C18.0198 3.97358 19.1107 4.0682 19.4287 4.11046V7.21582H17.6011C16.1591 7.21582 15.8799 7.90102 15.8799 8.90671V11.124H19.3276L18.8784 14.6055H15.8799V23.5H21.7304C22.4315 23.5001 22.9999 22.932 23 22.231C23 22.2308 23 22.2307 23 22.2304V1.76848C22.9997 1.06784 22.4313 0.49986 21.7304 0.5Z" fill="white"/>
</svg>
