<svg width="23" height="24" viewBox="0 0 23 24" fill="none" xmlns="http://www.w3.org/2000/svg">
<path fill-rule="evenodd" clip-rule="evenodd" d="M22.9371 7.26206C22.8832 6.03998 22.6856 5.19982 22.4025 4.4718C22.1104 3.69903 21.6611 3.00717 21.0725 2.43202C20.4973 1.84792 19.8009 1.39405 19.0371 1.10656C18.3049 0.823466 17.4691 0.625841 16.247 0.571959C15.0158 0.513514 14.6249 0.5 11.5022 0.5C8.37957 0.5 7.98871 0.513514 6.76206 0.567396C5.53998 0.621278 4.69982 0.819078 3.97198 1.102C3.19903 1.39405 2.50717 1.84336 1.93202 2.43202C1.34792 3.00717 0.894225 3.70359 0.606564 4.46741C0.323466 5.19982 0.125841 6.03542 0.0719592 7.2575C0.0135143 8.48871 0 8.87957 0 12.0022C0 15.1249 0.0135143 15.5158 0.067396 16.7424C0.121278 17.9645 0.319078 18.8047 0.602176 19.5327C0.894225 20.3055 1.34792 20.9973 1.93202 21.5725C2.50717 22.1566 3.20359 22.6104 3.96741 22.8979C4.69982 23.181 5.53542 23.3787 6.75768 23.4325C7.98414 23.4866 8.37518 23.4999 11.4979 23.4999C14.6205 23.4999 15.0114 23.4866 16.238 23.4325C17.4601 23.3787 18.3003 23.181 19.0281 22.8979C20.5739 22.3003 21.7959 21.0782 22.3935 19.5327C22.6765 18.8003 22.8743 17.9645 22.9281 16.7424C22.982 15.5158 22.9955 15.1249 22.9955 12.0022C22.9955 8.87957 22.991 8.48871 22.9371 7.26206ZM20.8659 16.6526C20.8164 17.7758 20.6277 18.3824 20.4705 18.7868C20.084 19.7888 19.2888 20.584 18.2868 20.9705C17.8824 21.1277 17.2715 21.3164 16.1526 21.3657C14.9394 21.4198 14.5756 21.4331 11.5068 21.4331C8.43801 21.4331 8.06962 21.4198 6.86088 21.3657C5.73761 21.3164 5.13105 21.1277 4.72667 20.9705C4.22804 20.7862 3.77418 20.4941 3.40578 20.1122C3.02387 19.7393 2.73182 19.29 2.54753 18.7913C2.39028 18.387 2.2016 17.7758 2.15228 16.6571C2.09823 15.444 2.08489 15.08 2.08489 12.0112C2.08489 8.9424 2.09823 8.574 2.15228 7.36544C2.2016 6.24217 2.39028 5.63561 2.54753 5.23123C2.73182 4.73243 3.02387 4.27874 3.41034 3.91017C3.78313 3.52826 4.23243 3.23621 4.73123 3.0521C5.13561 2.89484 5.74674 2.70617 6.86544 2.65667C8.07857 2.60279 8.44258 2.58928 11.5112 2.58928C14.5846 2.58928 14.9484 2.60279 16.1571 2.65667C17.2804 2.70617 17.887 2.89484 18.2913 3.0521C18.79 3.23621 19.2438 3.52826 19.6122 3.91017C19.9941 4.28313 20.2862 4.73243 20.4705 5.23123C20.6277 5.63561 20.8164 6.24656 20.8659 7.36544C20.9198 8.57857 20.9333 8.9424 20.9333 12.0112C20.9333 15.08 20.9198 15.4394 20.8659 16.6526ZM11.5022 6.09364C8.24037 6.09364 5.59385 8.73998 5.59385 12.002C5.59385 15.2641 8.24037 17.9104 11.5022 17.9104C14.7643 17.9104 17.4106 15.2641 17.4106 12.002C17.4106 8.73998 14.7643 6.09364 11.5022 6.09364ZM11.5022 15.8346C9.3861 15.8346 7.66961 14.1183 7.66961 12.002C7.66961 9.88571 9.3861 8.1694 11.5022 8.1694C13.6185 8.1694 15.3348 9.88571 15.3348 12.002C15.3348 14.1183 13.6185 15.8346 11.5022 15.8346ZM17.6442 7.23914C18.4061 7.23914 19.0237 6.62152 19.0237 5.8598C19.0237 5.09791 18.4061 4.48047 17.6442 4.48047C16.8825 4.48047 16.2649 5.09791 16.2649 5.8598C16.2649 6.62152 16.8825 7.23914 17.6442 7.23914Z" fill="white"/>
</svg>
