<svg width="24" height="24" viewBox="0 0 24 24" fill="none" xmlns="http://www.w3.org/2000/svg">
<path d="M20.8558 0.5H4.12855C3.29674 0.5 2.49899 0.830437 1.91081 1.41862C1.32262 2.0068 0.992188 2.80455 0.992188 3.63636L0.992188 20.3636C0.992188 21.1955 1.32262 21.9932 1.91081 22.5814C2.49899 23.1696 3.29674 23.5 4.12855 23.5H20.8558C21.6876 23.5 22.4854 23.1696 23.0736 22.5814C23.6617 21.9932 23.9922 21.1955 23.9922 20.3636V3.63636C23.9922 2.80455 23.6617 2.0068 23.0736 1.41862C22.4854 0.830437 21.6876 0.5 20.8558 0.5ZM8.8331 18.7014C8.83327 18.7651 8.82085 18.8283 8.79657 18.8873C8.77228 18.9463 8.73659 18.9999 8.69156 19.045C8.64652 19.0902 8.59301 19.126 8.53411 19.1505C8.4752 19.1749 8.41205 19.1875 8.34827 19.1875H6.28219C6.2183 19.1877 6.15501 19.1752 6.09595 19.1508C6.03689 19.1265 5.98323 19.0907 5.93805 19.0455C5.89288 19.0003 5.85707 18.9467 5.8327 18.8876C5.80834 18.8285 5.79588 18.7653 5.79605 18.7014V10.0398C5.79605 9.91084 5.84727 9.78719 5.93844 9.69602C6.02961 9.60485 6.15326 9.55364 6.28219 9.55364H8.34827C8.47697 9.55398 8.60029 9.60535 8.69117 9.69648C8.78206 9.78761 8.8331 9.91107 8.8331 10.0398V18.7014ZM7.31457 8.73295C6.92688 8.73295 6.54789 8.61799 6.22553 8.4026C5.90317 8.1872 5.65192 7.88106 5.50356 7.52287C5.3552 7.16469 5.31638 6.77055 5.39201 6.39031C5.46765 6.01006 5.65434 5.66078 5.92848 5.38664C6.20263 5.11249 6.55191 4.9258 6.93215 4.85016C7.3124 4.77453 7.70654 4.81335 8.06472 4.96171C8.4229 5.11008 8.72905 5.36133 8.94444 5.68368C9.15984 6.00604 9.2748 6.38503 9.2748 6.77273C9.2748 7.29261 9.06828 7.7912 8.70066 8.15882C8.33305 8.52643 7.83446 8.73295 7.31457 8.73295ZM19.6326 18.7353C19.6328 18.7941 19.6214 18.8523 19.599 18.9066C19.5766 18.9609 19.5437 19.0102 19.5021 19.0518C19.4606 19.0933 19.4112 19.1262 19.3569 19.1486C19.3026 19.171 19.2444 19.1824 19.1857 19.1823H16.9641C16.9054 19.1824 16.8472 19.171 16.7929 19.1486C16.7386 19.1262 16.6892 19.0933 16.6477 19.0518C16.6062 19.0102 16.5733 18.9609 16.5509 18.9066C16.5285 18.8523 16.517 18.7941 16.5172 18.7353V14.6777C16.5172 14.0713 16.6949 12.0222 14.932 12.0222C13.5664 12.0222 13.288 13.4244 13.2332 14.0543V18.7406C13.2332 18.858 13.187 18.9707 13.1046 19.0543C13.0222 19.1379 12.9102 19.1858 12.7928 19.1875H10.647C10.5883 19.1875 10.5303 19.1759 10.4761 19.1535C10.422 19.131 10.3728 19.098 10.3314 19.0565C10.29 19.015 10.2572 18.9657 10.2349 18.9115C10.2126 18.8573 10.2012 18.7992 10.2013 18.7406V10.0019C10.2012 9.94324 10.2126 9.88516 10.2349 9.83094C10.2572 9.77672 10.29 9.72744 10.3314 9.68592C10.3728 9.64441 10.422 9.61146 10.4761 9.58899C10.5303 9.56651 10.5883 9.55494 10.647 9.55494H12.7928C12.9113 9.55494 13.025 9.60203 13.1088 9.68585C13.1926 9.76966 13.2397 9.88334 13.2397 10.0019V10.7572C13.7467 9.99534 14.4982 9.40989 16.1016 9.40989C19.6536 9.40989 19.63 12.7266 19.63 14.5483L19.6326 18.7353Z" fill="white"/>
</svg>
