<svg width="24" height="24" viewBox="0 0 24 24" fill="none" xmlns="http://www.w3.org/2000/svg">
<g clip-path="url(#clip0_356_6186)">
<path d="M22.7267 1.76518C21.8835 0.921781 20.8676 0.5 19.6798 0.5H5.30466C4.11684 0.5 3.10093 0.921781 2.25737 1.76518C1.41397 2.60875 0.992188 3.6246 0.992188 4.81247V19.1874C0.992188 20.3752 1.41397 21.3911 2.25737 22.2347C3.10093 23.0783 4.11684 23.5001 5.30466 23.5001H19.6796C20.8674 23.5001 21.8833 23.0783 22.7265 22.2347C23.5701 21.3911 23.9919 20.3752 23.9919 19.1874V4.81247C23.9918 3.6246 23.57 2.60859 22.7267 1.76518ZM18.5866 9.34968C18.5966 9.43953 18.6017 9.57405 18.6017 9.75405C18.6017 10.5926 18.4792 11.4337 18.2348 12.277C17.9903 13.1207 17.6159 13.9293 17.1116 14.7029C16.6078 15.4764 16.0063 16.1604 15.3076 16.7543C14.6087 17.348 13.7703 17.8224 12.7918 18.1766C11.8138 18.5312 10.7654 18.7085 9.64745 18.7085C7.91061 18.7085 6.30341 18.239 4.82592 17.3011C5.0655 17.3308 5.3152 17.3459 5.57461 17.3459C7.02215 17.3459 8.32489 16.8967 9.48292 15.998C8.8042 15.9883 8.19765 15.7788 7.66363 15.3691C7.12946 14.9599 6.75771 14.4408 6.54803 13.8119C6.80748 13.8518 7.00212 13.8715 7.13187 13.8715C7.35147 13.8715 7.6061 13.8317 7.8955 13.752C7.1668 13.612 6.55296 13.2505 6.05382 12.6665C5.55457 12.0824 5.30503 11.4162 5.30503 10.6675V10.6376C5.83396 10.887 6.3331 11.0167 6.80234 11.0268C5.89391 10.4178 5.43971 9.54442 5.43971 8.40642C5.43971 7.84733 5.58436 7.3183 5.87387 6.81916C6.66242 7.78754 7.62094 8.56109 8.74882 9.14005C9.8768 9.71897 11.0848 10.0436 12.3725 10.1134C12.3227 9.92372 12.2977 9.68403 12.2977 9.39463C12.2977 8.526 12.6046 7.78492 13.2186 7.17092C13.8324 6.55697 14.5737 6.2499 15.4421 6.2499C16.3607 6.2499 17.1245 6.57942 17.7334 7.23832C18.4222 7.10856 19.0914 6.85388 19.74 6.47468C19.4905 7.24314 19.0261 7.82719 18.3476 8.22653C18.9962 8.13653 19.6 7.96691 20.1589 7.71737C19.7397 8.35623 19.2155 8.90026 18.5866 9.34968Z" fill="white"/>
</g>
<defs>
<clipPath id="clip0_356_6186">
<rect width="23" height="23" fill="white" transform="translate(0.992188 0.5)"/>
</clipPath>
</defs>
</svg>
