<svg width="24" height="24" viewBox="0 0 24 24" fill="none" xmlns="http://www.w3.org/2000/svg">
<g clip-path="url(#clip0_357_6637)">
<path d="M10.7734 9.24219L15.2584 11.997C13.7465 12.9248 12.2789 13.8265 10.7734 14.7504V9.24219Z" fill="white"/>
<path d="M21.8582 0.5H3.12622C2.56024 0.5 2.01744 0.724835 1.61723 1.12504C1.21702 1.52525 0.992188 2.06805 0.992188 2.63403L0.992188 21.366C0.992188 21.9319 1.21702 22.4747 1.61723 22.875C2.01744 23.2752 2.56024 23.5 3.12622 23.5H21.8582C22.4241 23.5 22.9669 23.2752 23.3671 22.875C23.7674 22.4747 23.9922 21.9319 23.9922 21.366V2.63403C23.9922 2.06805 23.7674 1.52525 23.3671 1.12504C22.9669 0.724835 22.4241 0.5 21.8582 0.5ZM19.3438 15.4591C19.0563 16.3426 18.105 16.8797 17.2294 17.0025C14.0801 17.337 10.9043 17.337 7.75497 17.0025C6.8794 16.8797 5.92543 16.3491 5.64054 15.4591C5.19231 13.1753 5.19231 10.826 5.64054 8.54216C5.92804 7.65744 6.8794 7.12165 7.75497 6.99881C10.9043 6.66426 14.0801 6.66426 17.2294 6.99881C18.105 7.12165 19.0589 7.65222 19.3438 8.54216C19.7921 10.826 19.7921 13.1753 19.3438 15.4591Z" fill="white"/>
</g>
<defs>
<clipPath id="clip0_357_6637">
<rect width="23" height="23" fill="white" transform="translate(0.992188 0.5)"/>
</clipPath>
</defs>
</svg>
